<svg xmlns="http://www.w3.org/2000/svg" width="1480" height="2260" viewBox="0 0 1480 2260"><style>text{font-family:Arial,"Microsoft YaHei",sans-serif;fill:#0B3B3B}.t{font-weight:700}.m{fill:#6B9080}.card{fill:#fff;stroke:#CFE3DC}</style><defs><g id="desktop"><rect x="24" y="70" width="54" height="116" rx="8" fill="#fff" stroke="#E7F0ED"/><rect x="86" y="70" width="240" height="24" rx="8" fill="#fff" stroke="#E7F0ED"/><rect x="86" y="102" width="74" height="38" rx="8" fill="#F0FAF5"/><rect x="168" y="102" width="74" height="38" rx="8" fill="#fff" stroke="#E7F0ED"/><rect x="250" y="102" width="76" height="38" rx="8" fill="#fff" stroke="#E7F0ED"/><rect x="86" y="148" width="240" height="38" rx="8" fill="#fff" stroke="#E7F0ED"/></g><g id="mobile"><rect x="115" y="70" width="120" height="116" rx="12" fill="#fff" stroke="#CFE3DC"/><rect x="123" y="78" width="104" height="18" rx="6" fill="#F0FAF5"/><rect x="123" y="102" width="48" height="34" rx="7" fill="#10B981" opacity=".18"/><rect x="177" y="102" width="50" height="34" rx="7" fill="#fff" stroke="#E7F0ED"/><rect x="123" y="142" width="104" height="8" rx="4" fill="#E7F0ED"/><circle cx="211" cy="176" r="10" fill="#10B981"/></g></defs><rect width="100%" height="100%" fill="#F5F9FC"/><text x="24" y="38" font-size="24" class="t">LedgerTwo Fresh Light - 全套 Frame 预览</text><text x="24" y="65" font-size="13" class="m">2026-07-13 · 29 Frames · synthetic demo data only</text><g transform="translate(24,90)"><rect class="card" rx="14" width="350" height="250"/><text x="16" y="24" font-size="10" class="m">00 Foundations</text><text x="16" y="48" font-size="15" class="t">Fresh Light Tokens</text><text x="330" y="24" font-size="9" text-anchor="end" class="m">1440x900</text><rect x="16" y="62" width="318" height="132" rx="10" fill="#F5F9FC" stroke="#E7F0ED"/><use href="#desktop"/><text x="16" y="216" font-size="11">颜色、状态、阴影、主题模式</text><circle cx="318" cy="224" r="9" fill="#10B981"/><text x="318" y="228" font-size="9" text-anchor="middle" fill="#fff">1</text></g><g transform="translate(390,90)"><rect class="card" rx="14" width="350" height="250"/><text x="16" y="24" font-size="10" class="m">00 Foundations</text><text x="16" y="48" font-size="15" class="t">Typography Spacing Radius</text><text x="330" y="24" font-size="9" text-anchor="end" class="m">1440x900</text><rect x="16" y="62" width="318" height="132" rx="10" fill="#F5F9FC" stroke="#E7F0ED"/><use href="#desktop"/><text x="16" y="216" font-size="11">字体、间距、圆角、金额数字</text><circle cx="318" cy="224" r="9" fill="#10B981"/><text x="318" y="228" font-size="9" text-anchor="middle" fill="#fff">2</text></g><g transform="translate(756,90)"><rect class="card" rx="14" width="350" height="250"/><text x="16" y="24" font-size="10" class="m">00 Foundations</text><text x="16" y="48" font-size="15" class="t">Icon and Status Language</text><text x="330" y="24" font-size="9" text-anchor="end" class="m">1440x900</text><rect x="16" y="62" width="318" height="132" rx="10" fill="#F5F9FC" stroke="#E7F0ED"/><use href="#desktop"/><text x="16" y="216" font-size="11">Lucide 图标、状态与金额语义</text><circle cx="318" cy="224" r="9" fill="#10B981"/><text x="318" y="228" font-size="9" text-anchor="middle" fill="#fff">3</text></g><g transform="translate(1122,90)"><rect class="card" rx="14" width="350" height="250"/><text x="16" y="24" font-size="10" class="m">01 Components</text><text x="16" y="48" font-size="15" class="t">Buttons Chips Segments</text><text x="330" y="24" font-size="9" text-anchor="end" class="m">1440x900</text><rect x="16" y="62" width="318" height="132" rx="10" fill="#F5F9FC" stroke="#E7F0ED"/><use href="#desktop"/><text x="16" y="216" font-size="11">按钮、Chip、分段控件</text><circle cx="318" cy="224" r="9" fill="#10B981"/><text x="318" y="228" font-size="9" text-anchor="middle" fill="#fff">4</text></g><g transform="translate(24,360)"><rect class="card" rx="14" width="350" height="250"/><text x="16" y="24" font-size="10" class="m">01 Components</text><text x="16" y="48" font-size="15" class="t">Transaction Cards and Table Rows</text><text x="330" y="24" font-size="9" text-anchor="end" class="m">1440x900</text><rect x="16" y="62" width="318" height="132" rx="10" fill="#F5F9FC" stroke="#E7F0ED"/><use href="#desktop"/><text x="16" y="216" font-size="11">移动卡片与桌面行</text><circle cx="318" cy="224" r="9" fill="#10B981"/><text x="318" y="228" font-size="9" text-anchor="middle" fill="#fff">5</text></g><g transform="translate(390,360)"><rect class="card" rx="14" width="350" height="250"/><text x="16" y="24" font-size="10" class="m">01 Components</text><text x="16" y="48" font-size="15" class="t">Drawers Sheets Confirm Dialogs</text><text x="330" y="24" font-size="9" text-anchor="end" class="m">1440x900</text><rect x="16" y="62" width="318" height="132" rx="10" fill="#F5F9FC" stroke="#E7F0ED"/><use href="#desktop"/><text x="16" y="216" font-size="11">抽屉、Bottom Sheet、高风险确认</text><circle cx="318" cy="224" r="9" fill="#10B981"/><text x="318" y="228" font-size="9" text-anchor="middle" fill="#fff">6</text></g><g transform="translate(756,360)"><rect class="card" rx="14" width="350" height="250"/><text x="16" y="24" font-size="10" class="m">01 Components</text><text x="16" y="48" font-size="15" class="t">Loading Empty Error Permission</text><text x="330" y="24" font-size="9" text-anchor="end" class="m">1440x900</text><rect x="16" y="62" width="318" height="132" rx="10" fill="#F5F9FC" stroke="#E7F0ED"/><use href="#desktop"/><text x="16" y="216" font-size="11">加载、空、错误、权限</text><circle cx="318" cy="224" r="9" fill="#10B981"/><text x="318" y="228" font-size="9" text-anchor="middle" fill="#fff">7</text></g><g transform="translate(1122,360)"><rect class="card" rx="14" width="350" height="250"/><text x="16" y="24" font-size="10" class="m">02 Daily Use</text><text x="16" y="48" font-size="15" class="t">Dashboard Desktop 1440</text><text x="330" y="24" font-size="9" text-anchor="end" class="m">1440x1024</text><rect x="16" y="62" width="318" height="132" rx="10" fill="#F5F9FC" stroke="#E7F0ED"/><use href="#desktop"/><text x="16" y="216" font-size="11">月度摘要、待结算、周期提醒、最近流水</text><circle cx="318" cy="224" r="9" fill="#10B981"/><text x="318" y="228" font-size="9" text-anchor="middle" fill="#fff">8</text></g><g transform="translate(24,630)"><rect class="card" rx="14" width="350" height="250"/><text x="16" y="24" font-size="10" class="m">02 Daily Use</text><text x="16" y="48" font-size="15" class="t">Dashboard Mobile 390</text><text x="330" y="24" font-size="9" text-anchor="end" class="m">390x844</text><rect x="16" y="62" width="318" height="132" rx="10" fill="#F5F9FC" stroke="#E7F0ED"/><use href="#mobile"/><text x="16" y="216" font-size="11">5 秒看到总支出、结算和记一笔</text><circle cx="318" cy="224" r="9" fill="#10B981"/><text x="318" y="228" font-size="9" text-anchor="middle" fill="#fff">9</text></g><g transform="translate(390,630)"><rect class="card" rx="14" width="350" height="250"/><text x="16" y="24" font-size="10" class="m">02 Daily Use</text><text x="16" y="48" font-size="15" class="t">Transactions Desktop 1440</text><text x="330" y="24" font-size="9" text-anchor="end" class="m">1440x1024</text><rect x="16" y="62" width="318" height="132" rx="10" fill="#F5F9FC" stroke="#E7F0ED"/><use href="#desktop"/><text x="16" y="216" font-size="11">筛选工作台、表格、详情抽屉</text><circle cx="318" cy="224" r="9" fill="#10B981"/><text x="318" y="228" font-size="9" text-anchor="middle" fill="#fff">10</text></g><g transform="translate(756,630)"><rect class="card" rx="14" width="350" height="250"/><text x="16" y="24" font-size="10" class="m">02 Daily Use</text><text x="16" y="48" font-size="15" class="t">Transactions Mobile 390</text><text x="330" y="24" font-size="9" text-anchor="end" class="m">390x844</text><rect x="16" y="62" width="318" height="132" rx="10" fill="#F5F9FC" stroke="#E7F0ED"/><use href="#mobile"/><text x="16" y="216" font-size="11">交易卡片、搜索和筛选 Sheet</text><circle cx="318" cy="224" r="9" fill="#10B981"/><text x="318" y="228" font-size="9" text-anchor="middle" fill="#fff">11</text></g><g transform="translate(1122,630)"><rect class="card" rx="14" width="350" height="250"/><text x="16" y="24" font-size="10" class="m">02 Daily Use</text><text x="16" y="48" font-size="15" class="t">Transaction Drawer Desktop</text><text x="330" y="24" font-size="9" text-anchor="end" class="m">440x900</text><rect x="16" y="62" width="318" height="132" rx="10" fill="#F5F9FC" stroke="#E7F0ED"/><use href="#mobile"/><text x="16" y="216" font-size="11">金额优先、高低频字段分层</text><circle cx="318" cy="224" r="9" fill="#10B981"/><text x="318" y="228" font-size="9" text-anchor="middle" fill="#fff">12</text></g><g transform="translate(24,900)"><rect class="card" rx="14" width="350" height="250"/><text x="16" y="24" font-size="10" class="m">02 Daily Use</text><text x="16" y="48" font-size="15" class="t">Transaction Sheet Mobile</text><text x="330" y="24" font-size="9" text-anchor="end" class="m">390x844</text><rect x="16" y="62" width="318" height="132" rx="10" fill="#F5F9FC" stroke="#E7F0ED"/><use href="#mobile"/><text x="16" y="216" font-size="11">移动快速记账与固定操作</text><circle cx="318" cy="224" r="9" fill="#10B981"/><text x="318" y="228" font-size="9" text-anchor="middle" fill="#fff">13</text></g><g transform="translate(390,900)"><rect class="card" rx="14" width="350" height="250"/><text x="16" y="24" font-size="10" class="m">02 Daily Use</text><text x="16" y="48" font-size="15" class="t">Settlement Desktop 1440</text><text x="330" y="24" font-size="9" text-anchor="end" class="m">1440x1024</text><rect x="16" y="62" width="318" height="132" rx="10" fill="#F5F9FC" stroke="#E7F0ED"/><use href="#desktop"/><text x="16" y="216" font-size="11">谁给谁、解释、历史与确认</text><circle cx="318" cy="224" r="9" fill="#10B981"/><text x="318" y="228" font-size="9" text-anchor="middle" fill="#fff">14</text></g><g transform="translate(756,900)"><rect class="card" rx="14" width="350" height="250"/><text x="16" y="24" font-size="10" class="m">02 Daily Use</text><text x="16" y="48" font-size="15" class="t">Settlement Mobile 390</text><text x="330" y="24" font-size="9" text-anchor="end" class="m">390x844</text><rect x="16" y="62" width="318" height="132" rx="10" fill="#F5F9FC" stroke="#E7F0ED"/><use href="#mobile"/><text x="16" y="216" font-size="11">结论优先、复制与登记结算</text><circle cx="318" cy="224" r="9" fill="#10B981"/><text x="318" y="228" font-size="9" text-anchor="middle" fill="#fff">15</text></g><g transform="translate(1122,900)"><rect class="card" rx="14" width="350" height="250"/><text x="16" y="24" font-size="10" class="m">02 Daily Use</text><text x="16" y="48" font-size="15" class="t">Analytics Desktop 1440</text><text x="330" y="24" font-size="9" text-anchor="end" class="m">1440x1024</text><rect x="16" y="62" width="318" height="132" rx="10" fill="#F5F9FC" stroke="#E7F0ED"/><use href="#desktop"/><text x="16" y="216" font-size="11">趋势、分类、成员、标签</text><circle cx="318" cy="224" r="9" fill="#10B981"/><text x="318" y="228" font-size="9" text-anchor="middle" fill="#fff">16</text></g><g transform="translate(24,1170)"><rect class="card" rx="14" width="350" height="250"/><text x="16" y="24" font-size="10" class="m">02 Daily Use</text><text x="16" y="48" font-size="15" class="t">Settings Desktop 1440</text><text x="330" y="24" font-size="9" text-anchor="end" class="m">1440x1024</text><rect x="16" y="62" width="318" height="132" rx="10" fill="#F5F9FC" stroke="#E7F0ED"/><use href="#desktop"/><text x="16" y="216" font-size="11">账号、账本、元数据、数据安全</text><circle cx="318" cy="224" r="9" fill="#10B981"/><text x="318" y="228" font-size="9" text-anchor="middle" fill="#fff">17</text></g><g transform="translate(390,1170)"><rect class="card" rx="14" width="350" height="250"/><text x="16" y="24" font-size="10" class="m">03 Import</text><text x="16" y="48" font-size="15" class="t">Entry Desktop 1440</text><text x="330" y="24" font-size="9" text-anchor="end" class="m">1440x900</text><rect x="16" y="62" width="318" height="132" rx="10" fill="#F5F9FC" stroke="#E7F0ED"/><use href="#desktop"/><text x="16" y="216" font-size="11">来源、上传、权限和历史批次</text><circle cx="318" cy="224" r="9" fill="#10B981"/><text x="318" y="228" font-size="9" text-anchor="middle" fill="#fff">18</text></g><g transform="translate(756,1170)"><rect class="card" rx="14" width="350" height="250"/><text x="16" y="24" font-size="10" class="m">03 Import</text><text x="16" y="48" font-size="15" class="t">Preview Desktop 1440</text><text x="330" y="24" font-size="9" text-anchor="end" class="m">1440x1024</text><rect x="16" y="62" width="318" height="132" rx="10" fill="#F5F9FC" stroke="#E7F0ED"/><use href="#desktop"/><text x="16" y="216" font-size="11">摘要、状态表格、提交阻断</text><circle cx="318" cy="224" r="9" fill="#10B981"/><text x="318" y="228" font-size="9" text-anchor="middle" fill="#fff">19</text></g><g transform="translate(1122,1170)"><rect class="card" rx="14" width="350" height="250"/><text x="16" y="24" font-size="10" class="m">03 Import</text><text x="16" y="48" font-size="15" class="t">Preview Mobile 390</text><text x="330" y="24" font-size="9" text-anchor="end" class="m">390x844</text><rect x="16" y="62" width="318" height="132" rx="10" fill="#F5F9FC" stroke="#E7F0ED"/><use href="#mobile"/><text x="16" y="216" font-size="11">导入行卡片与错误原因</text><circle cx="318" cy="224" r="9" fill="#10B981"/><text x="318" y="228" font-size="9" text-anchor="middle" fill="#fff">20</text></g><g transform="translate(24,1440)"><rect class="card" rx="14" width="350" height="250"/><text x="16" y="24" font-size="10" class="m">03 Import</text><text x="16" y="48" font-size="15" class="t">Row Editor Drawer</text><text x="330" y="24" font-size="9" text-anchor="end" class="m">390x844</text><rect x="16" y="62" width="318" height="132" rx="10" fill="#F5F9FC" stroke="#E7F0ED"/><use href="#mobile"/><text x="16" y="216" font-size="11">分类、账户、标签、可见性</text><circle cx="318" cy="224" r="9" fill="#10B981"/><text x="318" y="228" font-size="9" text-anchor="middle" fill="#fff">21</text></g><g transform="translate(390,1440)"><rect class="card" rx="14" width="350" height="250"/><text x="16" y="24" font-size="10" class="m">03 Import</text><text x="16" y="48" font-size="15" class="t">Commit Confirm Modal</text><text x="330" y="24" font-size="9" text-anchor="end" class="m">390x844</text><rect x="16" y="62" width="318" height="132" rx="10" fill="#F5F9FC" stroke="#E7F0ED"/><use href="#mobile"/><text x="16" y="216" font-size="11">导入/跳过/疑似/错误数量</text><circle cx="318" cy="224" r="9" fill="#10B981"/><text x="318" y="228" font-size="9" text-anchor="middle" fill="#fff">22</text></g><g transform="translate(756,1440)"><rect class="card" rx="14" width="350" height="250"/><text x="16" y="24" font-size="10" class="m">03 Import</text><text x="16" y="48" font-size="15" class="t">Rule Manager Desktop</text><text x="330" y="24" font-size="9" text-anchor="end" class="m">1440x900</text><rect x="16" y="62" width="318" height="132" rx="10" fill="#F5F9FC" stroke="#E7F0ED"/><use href="#desktop"/><text x="16" y="216" font-size="11">规则、优先级、命中解释</text><circle cx="318" cy="224" r="9" fill="#10B981"/><text x="318" y="228" font-size="9" text-anchor="middle" fill="#fff">23</text></g><g transform="translate(1122,1440)"><rect class="card" rx="14" width="350" height="250"/><text x="16" y="24" font-size="10" class="m">03 Import</text><text x="16" y="48" font-size="15" class="t">Rule Manager Mobile 390</text><text x="330" y="24" font-size="9" text-anchor="end" class="m">390x844</text><rect x="16" y="62" width="318" height="132" rx="10" fill="#F5F9FC" stroke="#E7F0ED"/><use href="#mobile"/><text x="16" y="216" font-size="11">移动规则编辑和多标签</text><circle cx="318" cy="224" r="9" fill="#10B981"/><text x="318" y="228" font-size="9" text-anchor="middle" fill="#fff">24</text></g><g transform="translate(24,1710)"><rect class="card" rx="14" width="350" height="250"/><text x="16" y="24" font-size="10" class="m">03 Import</text><text x="16" y="48" font-size="15" class="t">Rule Hit and Metadata Warning</text><text x="330" y="24" font-size="9" text-anchor="end" class="m">390x844</text><rect x="16" y="62" width="318" height="132" rx="10" fill="#F5F9FC" stroke="#E7F0ED"/><use href="#mobile"/><text x="16" y="216" font-size="11">命中解释和归档替换</text><circle cx="318" cy="224" r="9" fill="#10B981"/><text x="318" y="228" font-size="9" text-anchor="middle" fill="#fff">25</text></g><g transform="translate(390,1710)"><rect class="card" rx="14" width="350" height="250"/><text x="16" y="24" font-size="10" class="m">04 States</text><text x="16" y="48" font-size="15" class="t">Empty Loading Error Offline Permission</text><text x="330" y="24" font-size="9" text-anchor="end" class="m">1440x900</text><rect x="16" y="62" width="318" height="132" rx="10" fill="#F5F9FC" stroke="#E7F0ED"/><use href="#desktop"/><text x="16" y="216" font-size="11">核心页面状态矩阵</text><circle cx="318" cy="224" r="9" fill="#10B981"/><text x="318" y="228" font-size="9" text-anchor="middle" fill="#fff">26</text></g><g transform="translate(756,1710)"><rect class="card" rx="14" width="350" height="250"/><text x="16" y="24" font-size="10" class="m">04 States</text><text x="16" y="48" font-size="15" class="t">High Risk Confirmations</text><text x="330" y="24" font-size="9" text-anchor="end" class="m">1440x900</text><rect x="16" y="62" width="318" height="132" rx="10" fill="#F5F9FC" stroke="#E7F0ED"/><use href="#desktop"/><text x="16" y="216" font-size="11">删除、结算、导入、恢复确认</text><circle cx="318" cy="224" r="9" fill="#10B981"/><text x="318" y="228" font-size="9" text-anchor="middle" fill="#fff">27</text></g><g transform="translate(1122,1710)"><rect class="card" rx="14" width="350" height="250"/><text x="16" y="24" font-size="10" class="m">05 Code Mapping</text><text x="16" y="48" font-size="15" class="t">React Component Map</text><text x="330" y="24" font-size="9" text-anchor="end" class="m">1440x900</text><rect x="16" y="62" width="318" height="132" rx="10" fill="#F5F9FC" stroke="#E7F0ED"/><use href="#desktop"/><text x="16" y="216" font-size="11">Frame、路由、React、API 映射</text><circle cx="318" cy="224" r="9" fill="#10B981"/><text x="318" y="228" font-size="9" text-anchor="middle" fill="#fff">28</text></g><g transform="translate(24,1980)"><rect class="card" rx="14" width="350" height="250"/><text x="16" y="24" font-size="10" class="m">06 Future</text><text x="16" y="48" font-size="15" class="t">Calendar and Report Drilldown</text><text x="330" y="24" font-size="9" text-anchor="end" class="m">1440x900</text><rect x="16" y="62" width="318" height="132" rx="10" fill="#F5F9FC" stroke="#E7F0ED"/><use href="#desktop"/><text x="16" y="216" font-size="11">月历和报表钻取探索</text><circle cx="318" cy="224" r="9" fill="#10B981"/><text x="318" y="228" font-size="9" text-anchor="middle" fill="#fff">29</text></g></svg>